<?xml version="1.0" encoding="utf-8"?>
<!-- Generator: Adobe Illustrator 23.0.2, SVG Export Plug-In . SVG Version: 6.00 Build 0)  -->
<svg version="1.1" id="Layer_1" xmlns="http://www.w3.org/2000/svg" xmlns:xlink="http://www.w3.org/1999/xlink" x="0px"
	y="0px" viewBox="0 0 526.78 145.11" style="enable-background:new 0 0 526.78 145.11;" xml:space="preserve">
	<style type="text/css">
		.st0 {
			fill: #FFFFFF;
		}

		.st1 {
			fill: url(#SVGID_1_);
		}

		.st2 {
			fill: url(#SVGID_2_);
		}

		.st3 {
			fill: url(#SVGID_3_);
		}

		.st4 {
			fill: url(#SVGID_4_);
		}

		.st5 {
			fill: url(#SVGID_5_);
		}

		.st6 {
			fill: url(#SVGID_6_);
		}

		.st7 {
			fill: url(#SVGID_7_);
		}

		.st8 {
			fill: url(#SVGID_8_);
		}

		.st9 {
			fill: url(#SVGID_9_);
		}

		.st10 {
			fill: url(#SVGID_10_);
		}

		.st11 {
			fill: url(#SVGID_11_);
		}

		.st12 {
			fill: url(#SVGID_12_);
		}

		.st13 {
			fill: url(#SVGID_13_);
		}

		.st14 {
			fill: url(#SVGID_14_);
		}

		.st15 {
			fill: url(#SVGID_15_);
		}

		.st16 {
			fill: url(#SVGID_16_);
		}

		.st17 {
			fill: url(#SVGID_17_);
		}

		.st18 {
			fill: url(#SVGID_18_);
		}

		.st19 {
			fill: url(#SVGID_19_);
		}

		.st20 {
			fill: url(#SVGID_20_);
		}

		.st21 {
			fill: url(#SVGID_21_);
		}

		.st22 {
			fill: url(#SVGID_22_);
		}

		.st23 {
			fill: url(#SVGID_23_);
		}

		.st24 {
			fill: url(#SVGID_24_);
		}

		.st25 {
			fill: url(#SVGID_25_);
		}

		.st26 {
			fill: url(#SVGID_26_);
		}

		.st27 {
			fill: url(#SVGID_27_);
		}

		.st28 {
			fill: url(#SVGID_28_);
		}

		.st29 {
			fill: url(#SVGID_29_);
		}

		.st30 {
			fill: url(#SVGID_30_);
		}

		.st31 {
			fill: url(#SVGID_31_);
		}

		.st32 {
			fill: url(#SVGID_32_);
		}

		.st33 {
			fill: url(#SVGID_33_);
		}

		.st34 {
			fill: url(#SVGID_34_);
		}

		.st35 {
			fill: url(#SVGID_35_);
		}

		.st36 {
			fill: url(#SVGID_36_);
		}

		.st37 {
			fill: url(#SVGID_37_);
		}

		.st38 {
			fill: url(#SVGID_38_);
		}

		.st39 {
			fill: url(#SVGID_39_);
		}

		.st40 {
			fill: url(#SVGID_40_);
		}

		.st41 {
			fill: url(#SVGID_41_);
		}

		.st42 {
			fill: url(#SVGID_42_);
		}

		.st43 {
			fill: url(#SVGID_43_);
		}

		.st44 {
			fill: url(#SVGID_44_);
		}

		.st45 {
			fill: url(#SVGID_45_);
		}

		.st46 {
			fill: url(#SVGID_46_);
		}

		.st47 {
			fill: url(#SVGID_47_);
		}

		.st48 {
			fill: url(#SVGID_48_);
		}

		.st49 {
			fill: url(#SVGID_49_);
		}

		.st50 {
			fill: url(#SVGID_50_);
		}

		.st51 {
			fill: url(#SVGID_51_);
		}

		.st52 {
			fill: url(#SVGID_52_);
		}

		.st53 {
			fill: url(#SVGID_53_);
		}

		.st54 {
			fill: url(#SVGID_54_);
		}

		.st55 {
			fill: url(#SVGID_55_);
		}

		.st56 {
			fill: url(#SVGID_56_);
		}
	</style>
	<g>
		<g>
			<g>
				<g>
					<g>
						<path class="st0" d="M172.32,100.46h-12.74V45.14h12.74c15.27,0.02,27.64,12.39,27.66,27.66
						C199.96,88.07,187.59,100.45,172.32,100.46z M190.96,72.8c0-10.3-8.35-18.64-18.64-18.64h-3.73v37.29h3.73
						C182.62,91.45,190.96,83.1,190.96,72.8z" />
						<path class="st0" d="M211.07,100.47l23.01-55.82l22.73,55.82h-9.74l-4.38-10.75h-17.44l-4.43,10.75H211.07z M228.97,80.7h10.05
						l-4.99-12.26L228.97,80.7z" />
						<path class="st0" d="M267.97,72.8c0-15.28,12.38-27.66,27.66-27.66c6.18-0.02,12.18,2.05,17.04,5.87l-5.56,7.1
						c-3.27-2.58-7.32-3.97-11.48-3.95c-7.97,0-15.05,5.06-17.63,12.6c-2.58,7.54-0.09,15.88,6.2,20.77
						c6.29,4.89,14.99,5.24,21.65,0.87V77.23h-14.43v-9.02h23.45v24.59l-1.64,1.35c-4.95,4.08-11.17,6.31-17.59,6.32
						C280.35,100.46,267.97,88.08,267.97,72.8z" />
						<path class="st0" d="M332.26,72.8c0-15.28,12.38-27.66,27.66-27.66c6.18-0.02,12.18,2.05,17.04,5.87l-5.56,7.1
						c-3.27-2.58-7.32-3.97-11.48-3.95c-7.97,0-15.05,5.06-17.63,12.6s-0.09,15.88,6.2,20.77c6.29,4.89,14.99,5.24,21.65,0.87V77.23
						H355.7v-9.02h23.45v24.59l-1.64,1.35c-4.95,4.08-11.17,6.31-17.59,6.32C344.64,100.46,332.26,88.08,332.26,72.8z" />
						<path class="st0"
							d="M431.91,100.46h-32.95V45.14h32.95v9.02h-23.93v20.29h20.64v9.02h-20.64v7.98h23.93V100.46z" />
						<path class="st0" d="M450.81,100.47V45.14h21.07c9.19,0,17.08,6.52,18.82,15.54c1.74,9.02-3.18,18.01-11.71,21.41l14.1,18.37
						h-11.44l-12.95-17h-8.86v17H450.81z M459.83,74.45h12.05c5.6,0,10.14-4.54,10.14-10.15c0-5.6-4.54-10.14-10.14-10.14h-12.05
						V74.45z" />
					</g>
					<g>
						<path class="st0" d="M524.72,100.46c-1.14,0-2.06-0.92-2.06-2.06s0.92-2.06,2.06-2.06s2.06,0.92,2.06,2.06
						S525.86,100.46,524.72,100.46z" />
						<path class="st0" d="M522.95,89.23l-3.19-3.88c1.45-1.19,2-3.16,1.37-4.93c-0.63-1.77-2.31-2.95-4.19-2.95H495.6v-5.02h21.35
						c5.23,0.01,9.46,4.24,9.47,9.47C526.42,84.74,525.15,87.43,522.95,89.23z" />
						<path class="st0" d="M526.42,44.64v16.32H495.6v-5.02h25.79v-11.3H526.42z" />
					</g>
				</g>
			</g>
		</g>
		<g>
			<g>
				<g>

					<linearGradient id="SVGID_1_" gradientUnits="userSpaceOnUse" x1="1226.0817" y1="208.7558"
						x2="1226.0817" y2="151.969"
						gradientTransform="matrix(0.423 -0.423 0.5988 0.5988 -582.2337 466.5847)">
						<stop offset="0" style="stop-color:#00ECFF" />
						<stop offset="1" style="stop-color:#016AFB;stop-opacity:0" />
					</linearGradient>
					<polygon class="st1" points="43.63,58.14 40.77,47.09 30.86,41.54 44.13,60.93 				" />

					<linearGradient id="SVGID_2_" gradientUnits="userSpaceOnUse" x1="1223.256" y1="250.7153"
						x2="1223.256" y2="116.6797"
						gradientTransform="matrix(0.423 -0.423 0.5988 0.5988 -582.2337 466.5847)">
						<stop offset="0" style="stop-color:#F702FF" />
						<stop offset="1" style="stop-color:#871BFF;stop-opacity:0" />
					</linearGradient>
					<polygon class="st2" points="76.8,98.36 103.33,111.4 43.6,49.95 45.22,55.66 45.33,55.6 45.61,57.04 48.26,66.36 73.21,83.91 
									" />

					<linearGradient id="SVGID_3_" gradientUnits="userSpaceOnUse" x1="729.1372" y1="370.1234"
						x2="729.1372" y2="300.6961"
						gradientTransform="matrix(0.7071 -0.7071 0.7071 0.7071 -696.4052 384.8236)">
						<stop offset="0" style="stop-color:#FF1818" />
						<stop offset="1" style="stop-color:#D80026;stop-opacity:0" />
					</linearGradient>
					<polygon class="st3" points="35.63,81.83 44.06,102.1 48.88,90.99 				" />

					<linearGradient id="SVGID_4_" gradientUnits="userSpaceOnUse" x1="1203.3395" y1="219.6533"
						x2="1203.3395" y2="153.1693"
						gradientTransform="matrix(0.423 -0.423 0.5988 0.5988 -582.2337 466.5847)">
						<stop offset="0" style="stop-color:#00ECFF" />
						<stop offset="1" style="stop-color:#016AFB;stop-opacity:0" />
					</linearGradient>
					<polygon class="st4" points="22.99,45.73 23.19,49.5 39.6,81.03 46.44,85.46 24.32,44.5 				" />

					<linearGradient id="SVGID_5_" gradientUnits="userSpaceOnUse" x1="1212.093" y1="218.8463"
						x2="1212.093" y2="153.0612"
						gradientTransform="matrix(0.423 -0.423 0.5988 0.5988 -582.2337 466.5847)">
						<stop offset="0" style="stop-color:#00ECFF" />
						<stop offset="1" style="stop-color:#016AFB;stop-opacity:0" />
					</linearGradient>
					<polygon class="st5" points="45.53,68.93 45.19,67 29.49,42.64 28.31,40.81 25.56,43.35 32.9,56.11 35.1,59.94 47.86,82.15 				
					" />

					<linearGradient id="SVGID_6_" gradientUnits="userSpaceOnUse" x1="725.7857" y1="370.1234"
						x2="725.7857" y2="300.6961"
						gradientTransform="matrix(0.7071 -0.7071 0.7071 0.7071 -696.4052 384.8236)">
						<stop offset="0" style="stop-color:#FF1818" />
						<stop offset="1" style="stop-color:#D80026;stop-opacity:0" />
					</linearGradient>
					<polygon class="st6" points="50.8,93.61 78.29,145.11 46.43,103.92 				" />

					<linearGradient id="SVGID_7_" gradientUnits="userSpaceOnUse" x1="-631.0194" y1="370.1234"
						x2="-631.0194" y2="300.6961"
						gradientTransform="matrix(-0.7071 0.7071 0.7071 0.7071 -580.9372 269.3556)">
						<stop offset="0" style="stop-color:#FF1818" />
						<stop offset="1" style="stop-color:#D80026;stop-opacity:0" />
					</linearGradient>
					<polygon class="st7" points="77.84,39.62 98.11,48.04 87,52.87 				" />

					<linearGradient id="SVGID_8_" gradientUnits="userSpaceOnUse" x1="-634.371" y1="370.1234"
						x2="-634.371" y2="300.6961"
						gradientTransform="matrix(-0.7071 0.7071 0.7071 0.7071 -580.9372 269.3556)">
						<stop offset="0" style="stop-color:#FF1818" />
						<stop offset="1" style="stop-color:#D80026;stop-opacity:0" />
					</linearGradient>
					<polygon class="st8" points="89.62,54.79 141.13,82.27 99.94,50.41 				" />
					<linearGradient id="SVGID_9_" gradientUnits="userSpaceOnUse" x1="71.2488" y1="115.625" x2="59.9617"
						y2="84.3774">
						<stop offset="5.586592e-03" style="stop-color:#39FF14" />
						<stop offset="1" style="stop-color:#0C8900" />
					</linearGradient>
					<polygon class="st9" points="70.57,87.87 58.19,90.41 53.16,91.44 83.2,144.32 75.71,110.79 				" />
					<linearGradient id="SVGID_10_" gradientUnits="userSpaceOnUse" x1="70.649" y1="115.8416" x2="59.3619"
						y2="84.5941">
						<stop offset="5.586592e-03" style="stop-color:#39FF14" />
						<stop offset="1" style="stop-color:#0C8900" />
					</linearGradient>
					<polygon class="st10" points="48.46,71.45 51.79,88.3 56.67,87.22 68.28,84.64 48.09,69.56 				" />

					<linearGradient id="SVGID_11_" gradientUnits="userSpaceOnUse" x1="1271.944" y1="213.57"
						x2="1271.944" y2="149.4161"
						gradientTransform="matrix(0.423 -0.423 0.5988 0.5988 -582.2337 466.5847)">
						<stop offset="0" style="stop-color:#00ECFF" />
						<stop offset="1" style="stop-color:#016AFB;stop-opacity:0" />
					</linearGradient>
					<polygon class="st11" points="72.89,39.24 57.72,28.7 49.04,28.22 73.48,40.15 				" />

					<linearGradient id="SVGID_12_" gradientUnits="userSpaceOnUse" x1="1242.0861" y1="208.7558"
						x2="1242.0861" y2="151.969"
						gradientTransform="matrix(0.423 -0.423 0.5988 0.5988 -582.2337 466.5847)">
						<stop offset="0" style="stop-color:#00ECFF" />
						<stop offset="1" style="stop-color:#016AFB;stop-opacity:0" />
					</linearGradient>
					<polygon class="st12" points="53.34,48.43 56.14,48.92 36.74,35.65 42.29,45.56 				" />

					<linearGradient id="SVGID_13_" gradientUnits="userSpaceOnUse" x1="1244.9117" y1="250.7153"
						x2="1244.9117" y2="116.6797"
						gradientTransform="matrix(0.423 -0.423 0.5988 0.5988 -582.2337 466.5847)">
						<stop offset="0" style="stop-color:#F702FF" />
						<stop offset="1" style="stop-color:#871BFF;stop-opacity:0" />
					</linearGradient>
					<polygon class="st13" points="45.16,48.39 106.61,108.12 93.57,81.6 79.11,78.01 61.57,53.05 52.25,50.41 50.81,50.12 
					50.87,50.01 				" />

					<linearGradient id="SVGID_14_" gradientUnits="userSpaceOnUse" x1="1234.0839" y1="198.8351"
						x2="1234.0839" y2="153.0981"
						gradientTransform="matrix(0.423 -0.423 0.5988 0.5988 -582.2337 466.5847)">
						<stop offset="0" style="stop-color:#00ECFF" />
						<stop offset="1" style="stop-color:#016AFB;stop-opacity:0" />
					</linearGradient>
					<polygon class="st14" points="34.97,35.99 33.08,37.88 31.2,39.76 39.15,43.94 				" />
					<linearGradient id="SVGID_15_" gradientUnits="userSpaceOnUse" x1="101.9516" y1="71.3124"
						x2="101.9516" y2="-84.641">
						<stop offset="0" style="stop-color:#F702FF" />
						<stop offset="1" style="stop-color:#871BFF;stop-opacity:0" />
					</linearGradient>
					<polygon class="st15" points="125.81,130.61 79.08,106.74 78.87,105.82 78.09,102.38 115.98,120.99 116.47,121.25 
					116.44,121.22 115.68,119.67 97.59,82.89 100.51,83.56 101.96,83.88 				" />

					<linearGradient id="SVGID_16_" gradientUnits="userSpaceOnUse" x1="1264.8281" y1="219.6533"
						x2="1264.8281" y2="153.1693"
						gradientTransform="matrix(0.423 -0.423 0.5988 0.5988 -582.2337 466.5847)">
						<stop offset="0" style="stop-color:#00ECFF" />
						<stop offset="1" style="stop-color:#016AFB;stop-opacity:0" />
					</linearGradient>
					<polygon class="st16" points="44.7,27.99 40.93,27.78 39.7,29.11 80.67,51.23 76.24,44.4 				" />

					<linearGradient id="SVGID_17_" gradientUnits="userSpaceOnUse" x1="1256.0746" y1="218.8463"
						x2="1256.0746" y2="153.0612"
						gradientTransform="matrix(0.423 -0.423 0.5988 0.5988 -582.2337 466.5847)">
						<stop offset="0" style="stop-color:#00ECFF" />
						<stop offset="1" style="stop-color:#016AFB;stop-opacity:0" />
					</linearGradient>
					<polygon class="st17" points="62.21,49.99 64.14,50.33 77.36,52.65 55.15,39.89 51.32,37.69 38.55,30.36 36.01,33.1 
					37.85,34.28 				" />
					<linearGradient id="SVGID_18_" gradientUnits="userSpaceOnUse" x1="104.6085" y1="75.8139"
						x2="80.2521" y2="64.5267">
						<stop offset="5.586592e-03" style="stop-color:#39FF14" />
						<stop offset="1" style="stop-color:#0C8900" />
					</linearGradient>
					<polygon class="st18" points="85.61,62.98 83.07,75.37 105.99,80.51 139.52,88 86.65,57.96 				" />
					<linearGradient id="SVGID_19_" gradientUnits="userSpaceOnUse" x1="104.7429" y1="75.5238"
						x2="80.3865" y2="64.2367">
						<stop offset="5.586592e-03" style="stop-color:#39FF14" />
						<stop offset="1" style="stop-color:#0C8900" />
					</linearGradient>
					<polygon class="st19" points="83.5,56.59 66.66,53.26 64.77,52.88 79.84,73.08 82.42,61.46 				" />
				</g>
				<linearGradient id="SVGID_20_" gradientUnits="userSpaceOnUse" x1="30.4154" y1="70.9244" x2="13.3065"
					y2="39.2017">
					<stop offset="0" style="stop-color:#FF1818" />
					<stop offset="1" style="stop-color:#D80026;stop-opacity:0" />
				</linearGradient>
				<polyline class="st20" points="10.2,35.02 31.79,75.9 33.68,75.4 12.09,34.52 			" />

				<linearGradient id="SVGID_21_" gradientUnits="userSpaceOnUse" x1="709.7313" y1="338.3695" x2="729.6899"
					y2="297.6458" gradientTransform="matrix(0.7071 -0.7071 0.7071 0.7071 -696.4052 384.8236)">
					<stop offset="0" style="stop-color:#F702FF" />
					<stop offset="1" style="stop-color:#871BFF;stop-opacity:0" />
				</linearGradient>
				<polyline class="st21" points="24.9,78.45 46.49,119.33 48.38,118.83 26.79,77.95 			" />

				<linearGradient id="SVGID_22_" gradientUnits="userSpaceOnUse" x1="-650.4254" y1="338.3695"
					x2="-630.4667" y2="297.6458"
					gradientTransform="matrix(-0.7071 0.7071 0.7071 0.7071 -580.9372 269.3556)">
					<stop offset="0" style="stop-color:#F702FF" />
					<stop offset="1" style="stop-color:#871BFF;stop-opacity:0" />
				</linearGradient>
				<polyline class="st22" points="74.47,28.88 115.35,50.48 114.85,52.37 73.97,30.78 			" />

				<linearGradient id="SVGID_23_" gradientUnits="userSpaceOnUse" x1="754.0111" y1="265.7696" x2="763.2408"
					y2="235.8492" gradientTransform="matrix(0.7071 -0.7071 0.7071 0.7071 -696.4052 384.8236)">
					<stop offset="0" style="stop-color:#04D9FF" />
					<stop offset="1" style="stop-color:#871BFF;stop-opacity:0" />
				</linearGradient>
				<polygon class="st23" points="26.64,39.24 3.8,0 1.94,0.59 25.25,40.63 			" />
				<linearGradient id="SVGID_24_" gradientUnits="userSpaceOnUse" x1="69.9871" y1="49.5824" x2="52.8782"
					y2="17.8596">
					<stop offset="0" style="stop-color:#FF1818" />
					<stop offset="1" style="stop-color:#D80026;stop-opacity:0" />
				</linearGradient>
				<polyline class="st24" points="35.95,12.17 76.83,33.76 76.33,35.65 35.45,14.06 			" />

				<linearGradient id="SVGID_25_" gradientUnits="userSpaceOnUse" x1="-612.912" y1="265.7696" x2="-603.6824"
					y2="235.8492" gradientTransform="matrix(-0.7071 0.7071 0.7071 0.7071 -581.7371 270.1555)">
					<stop offset="0" style="stop-color:#04D9FF" />
					<stop offset="1" style="stop-color:#871BFF;stop-opacity:0" />
				</linearGradient>
				<polygon class="st25" points="39.24,26.64 0,3.8 0.59,1.94 40.63,25.25 			" />
			</g>
			<linearGradient id="SVGID_26_" gradientUnits="userSpaceOnUse" x1="24.874" y1="80.5806" x2="22.2469"
				y2="77.7893">
				<stop offset="0" style="stop-color:#FF1818" />
				<stop offset="1" style="stop-color:#D80026;stop-opacity:0" />
			</linearGradient>
			<circle class="st26" cx="23.34" cy="78.95" r="1.73" />
			<linearGradient id="SVGID_27_" gradientUnits="userSpaceOnUse" x1="58.9066" y1="17.5897" x2="56.2794"
				y2="14.7984">
				<stop offset="0" style="stop-color:#FF1818" />
				<stop offset="1" style="stop-color:#D80026;stop-opacity:0" />
			</linearGradient>
			<circle class="st27" cx="57.37" cy="15.96" r="1.73" />
			<linearGradient id="SVGID_28_" gradientUnits="userSpaceOnUse" x1="120.9318" y1="61.3196" x2="118.3047"
				y2="58.5283">
				<stop offset="0" style="stop-color:#FF1818" />
				<stop offset="1" style="stop-color:#D80026;stop-opacity:0" />
			</linearGradient>
			<circle class="st28" cx="119.39" cy="59.69" r="1.73" />
		</g>
	</g>
</svg>